PathFileType        4      (X/Y/Z)      C:\Users\pc\Desktop\IMUTRC\Sujet_04\Sujet_04_velo_80.trc         
DataRate	CameraRate	NumFrames	NumMarkers	Units	OrigDataRate	OrigDataStartFrame	OrigNumFrames
60.0	60.0	4	64	mm	60.0	234	934
Frame#	Time	pHipOrigin			pRightASI			pLeftASI			pRightCSI			pLeftCSI			pRightIschialTub			pLeftIschialTub			pSacrum			pL5SpinalProcess			pL3SpinalProcess			pT12SpinalProcess			pIJ			pT4SpinalProcess			pT8SpinalProcess			pPX			pC7SpinalProcess			pTopOfHead			pRightAuricularis			pLeftAuricularis			pBackOfHead			pRightAcromion			pLeftAcromion			pRightArmLatEpicondyle			pRightArmMedEpicondyle			pLeftArmLatEpicondyle			pLeftArmMedEpicondyle			pRightUlnarStyloid			pRightRadialStyloid			pRightOlecranon			pLeftUlnarStyloid			pLeftRadialStyloid			pLeftOlecranon			pRightTopOfHand			pRightPinky			pRightBallHand			pLeftTopOfHand			pLeftPinky			pLeftBallHand			pRightGreaterTrochanter			pRightKneeLatEpicondyle			pRightKneeMedEpicondyle			pRightPatella			pLeftGreaterTrochanter			pLeftKneeLatEpicondyle			pLeftKneeMedEpicondyle			pLeftPatella			pRightTibialTub			pRightLatMalleolus			pRightMedMalleolus			pLeftTibialTub			pLeftLatMalleolus			pLeftMedMalleolus			pRightHeelFoot			pRightFirstMetatarsal			pRightFifthMetatarsal			pRightPivotFoot			pRightHeelCenter			pRightToe			pLeftHeelFoot			pLeftFirstMetatarsal			pLeftFifthMetatarsal			pLeftPivotFoot			pLeftHeelCenter			pLeftToe			
		X1	Y1	Z1	X2	Y2	Z2	X3	Y3	Z3	X4	Y4	Z4	X5	Y5	Z5	X6	Y6	Z6	X7	Y7	Z7	X8	Y8	Z8	X9	Y9	Z9	X10	Y10	Z10	X11	Y11	Z11	X12	Y12	Z12	X13	Y13	Z13	X14	Y14	Z14	X15	Y15	Z15	X16	Y16	Z16	X17	Y17	Z17	X18	Y18	Z18	X19	Y19	Z19	X20	Y20	Z20	X21	Y21	Z21	X22	Y22	Z22	X23	Y23	Z23	X24	Y24	Z24	X25	Y25	Z25	X26	Y26	Z26	X27	Y27	Z27	X28	Y28	Z28	X29	Y29	Z29	X30	Y30	Z30	X31	Y31	Z31	X32	Y32	Z32	X33	Y33	Z33	X34	Y34	Z34	X35	Y35	Z35	X36	Y36	Z36	X37	Y37	Z37	X38	Y38	Z38	X39	Y39	Z39	X40	Y40	Z40	X41	Y41	Z41	X42	Y42	Z42	X43	Y43	Z43	X44	Y44	Z44	X45	Y45	Z45	X46	Y46	Z46	X47	Y47	Z47	X48	Y48	Z48	X49	Y49	Z49	X50	Y50	Z50	X51	Y51	Z51	X52	Y52	Z52	X53	Y53	Z53	X54	Y54	Z54	X55	Y55	Z55	X56	Y56	Z56	X57	Y57	Z57	X58	Y58	Z58	X59	Y59	Z59	X60	Y60	Z60	X61	Y61	Z61	X62	Y62	Z62	X63	Y63	Z63	X64	Y64	Z64	
234	3.883	4.919907857114186E-14	1249.99598	5.863317863948313E-14	90.95186355764986	1319.70352	158.5685662475015	93.95950316872954	1358.77673	-132.79052587992373	58.83773298995487	1403.052	142.50711591554085	61.240329356468244	1435.01573	-95.97965964494449	-72.00755413047497	1194.6808	52.57436949078813	-70.76198179234406	1210.69157	-66.70617524351664	-66.01424453616737	1286.81497	4.235170008487234	-2.4534389713539557	1383.45759	16.319366694977578	68.54971308947884	1481.19842	31.967614932117517	136.99693735148438	1568.13054	46.81787907688348	403.0078013557468	1580.61547	77.8860015465776	293.7214067440797	1693.50006	75.422411276772	215.9615116073973	1643.67594	61.97287454536881	299.67639916443807	1508.19131	59.40939081331243	342.54107348356814	1722.51597	83.42706840327554	582.7535189310802	1795.51814	116.75112238361442	493.8220290017615	1742.91958	171.90655131081968	510.22686782879555	1751.53187	35.98230034572242	474.4446876401558	1793.55292	103.58287174597189	317.9860364930713	1662.86574	268.8967298688821	364.34368460514577	1705.34919	-106.22203040912838	332.18985590516934	1342.88156	284.7451326354989	305.14839788288657	1335.71429	223.83331967927492	408.2694250818734	1384.5558	-90.11185770817437	368.2211067683302	1379.98955	-36.58764880746452	434.4148134885989	1112.25713	212.70071454579175	482.0206657797373	1134.91497	222.85568410214742	295.74746477107755	1329.24062	251.5658664193382	450.91666028425095	1144.22087	13.766992062640782	501.1323717686083	1160.86744	23.16562801768646	364.4804875710636	1375.0765	-70.2701284066722	647.4248662952659	1054.05192	312.16051482446244	555.3153846643975	1037.57874	263.89519966534533	496.75920713652334	1085.03304	221.806578170744	666.9862916690157	1038.44575	5.1002731231582175	563.0053440517679	1045.55523	19.83999857023423	505.19030473726593	1108.44229	32.58769358012458	15.03063477379952	1214.67981	176.6247708171987	242.08752613445532	843.5421	180.24285533477982	246.63553844609547	837.87764	96.37062502262123	282.8993623217682	867.87615	135.81146113109503	22.555483516014974	1249.64918	-177.1519479758254	402.70960609096926	1038.27235	-188.81769379868314	411.96317848564047	1036.82734	-105.1329168967622	427.5741150909048	1080.17779	-145.69706027589467	296.54987244004496	800.82745	143.44701189138232	169.37890767609588	402.52345	165.79929264474652	179.25833418143802	401.19403	100.24039015605288	422.0382417878775	982.32136	-152.29445717292384	83.45235026160185	737.13117	-175.88587445239432	90.4388729090029	730.0795	-110.36940180087059	117.94388787794232	320.61998	122.03615739730738	293.81984031984405	294.72531	93.52407396968665	286.7118333344839	288.30944	177.58260268582512	314.01272600645694	287.61583	136.1129127373108	160.20522606381567	315.82253	125.28224248764954	403.1011522381251	272.18307	142.47117758155298	-0.18425376040205776	685.97763	-137.1704669482931	142.8986605862352	587.7166	-89.57396542980582	141.36934438622833	580.02912	-173.85481241627124	161.66404184665757	569.97181	-129.61596931192176	35.71372327553858	663.08859	-135.75294456008254	235.09014533100435	516.79525	-126.18701623185581	
235	3.9	4.919907857114186E-14	1249.99598	5.863317863948313E-14	91.033294050302	1319.70352	158.57569049247388	93.8780726760774	1358.77673	-132.79765012489614	58.83773298995487	1403.052	142.50711591554085	61.196044327211546	1435.01573	-95.9425000932285	-71.96327676166271	1194.6808	52.53721636694825	-70.80625916115633	1210.69157	-66.66902211967675	-66.02136878113977	1286.81497	4.316600501139394	-2.4534389713539557	1383.45759	16.319366694977578	68.59399045829113	1481.19842	31.930461808277634	137.05546321024144	1568.13054	46.61786496773927	403.0749833584541	1580.38427	78.05598677685435	293.9056404643012	1693.38446	75.19236828876028	216.0643224954111	1643.61814	61.7357008845086	299.65502642952094	1508.0179	59.65368229126892	342.7695922330464	1722.34257	83.15986586354788	582.9377526513017	1795.28693	116.52107939560273	493.999146137455	1742.74618	171.75793238758405	510.4111015490171	1751.24287	35.75225735771073	474.6731987291896	1793.32171	103.31567563412023	318.41456169124933	1662.57674	268.68805961578767	364.60935647846384	1704.82898	-106.44495558004378	332.10996373937115	1342.70816	285.1894458830441	304.8542290296789	1335.42528	224.38196682079894	408.48062511557487	1383.9778	-91.11906658718829	368.1579864452078	1379.18035	-37.741938282860076	433.68500162011696	1111.67912	213.53947009350688	481.4094310998713	1134.22136	223.74583360320284	295.5489825609112	1329.06722	251.95877039265415	449.9410121830824	1143.81626	14.132929722476746	500.19388321915585	1160.28944	23.575850706779192	364.5359508644331	1374.4985	-71.37301626828304	646.5408431575538	1053.30051	313.35501356120926	554.4827554800256	1036.88514	264.9711212134762	496.0222645951929	1084.39724	222.72675655066683	665.5836566965232	1037.17414	6.126318528606191	561.6541106930601	1044.74602	20.7474603591902	504.030429343752	1107.92209	33.183681888416714	15.17059878565317	1214.10181	176.4318745251508	230.47387331125282	835.97022	177.46261473493564	234.08185874658648	830.30576	93.54916961935231	271.6470539266047	859.09046	132.65255095955916	23.162664176740506	1250.51619	-177.05779965963802	411.01561495973317	1053.58951	-188.09101218352052	420.1434718324955	1052.5491	-104.37619997485598	434.23011319506725	1096.47756	-144.86857454736017	284.03893821037036	792.38856	140.13697353220044	151.48484966671467	395.76077	161.6490357593718	161.15713015749577	394.48916	96.11304433244933	431.77438472739436	998.21653	-151.03237902455288	99.79308203105212	744.00945	-173.67672053112068	106.77248809392519	737.65138	-108.0788238148209	97.36105587497647	315.99593	117.19937455850999	272.2053641375596	284.7258	87.8175088226776	265.09737124052003	277.61633	171.87603877138434	292.242520744285	276.51812	130.31066217982868	139.4366284416504	309.81127	120.22407280479078	380.87797758445777	258.07972	136.21903551885174	17.61359248160172	690.77509	-135.20308115224503	163.44379259226017	596.79129	-87.12006902204762	162.36591908007856	589.10381	-171.40243258660206	182.82347875838042	579.62451	-127.14935508062834	54.200166582599515	668.92646	-133.68428743544303	257.78253362937005	528.64438	-123.4221714677698	
236	3.917	4.919907857114186E-14	1249.99598	5.863317863948313E-14	90.30906809993844	1319.87692	158.8815780550193	94.50815031025357	1358.60333	-132.49635702671605	58.17203289834839	1403.1676	142.61298936894212	61.68463494356892	1434.90013	-95.89976105127025	-72.23047930139037	1194.7386	52.30869761747004	-70.4963175794704	1210.63377	-66.92909398655593	-66.03003135296616	1286.81497	3.946593501274048	-2.520627401937423	1383.51539	16.149373804256435	68.51968421061136	1481.25622	31.841907070653086	137.09974057905373	1568.13054	46.58071184389939	403.01798816610665	1580.09527	78.70744480639212	294.0242317412376	1693.21106	75.2437634746689	216.14575298806326	1643.56033	61.74282512948102	299.52372498949364	1507.7867	60.21658558318214	342.9182047284059	1722.16916	83.33697533879698	583.079247329565	1794.94013	116.77962702394845	494.0963570190298	1742.51498	172.0536254793252	510.54546555443176	1750.83827	36.09222781826418	474.81469340745286	1793.03271	103.57422326246595	318.48174369395673	1662.28773	268.8580448460644	364.8022463426356	1704.25097	-106.30499922863456	331.7201159035665	1342.53476	285.8938297649	304.16156385716073	1335.13628	225.2649920768819	408.73763318449824	1383.34199	-91.71198466964847	368.0734933871681	1378.31334	-38.65193628029914	432.9037740495297	1111.27452	214.4968080251457	480.5768095759439	1133.75896	224.8217487234576	294.98914949482986	1328.83602	252.73033627721745	449.07682988130966	1143.18046	14.631707149194	499.35972979625046	1159.59583	24.200335994960938	364.63722219302457	1373.80489	-72.06161333334023	645.6196656634335	1052.7803	314.50524901746434	553.5615792184736	1036.42273	266.1213425814108	495.1896418386972	1083.93483	223.80268575924217	664.4181812965703	1035.96033	7.255173589499691	560.465724231336	1043.87901	21.669169405522553	503.06342972608934	1107.22848	33.91962531554975	14.526265001087765	1213.5816	176.29344884015114	220.8674999127853	830.47916	175.18620346257842	223.94262379082537	824.9881	91.26718008932109	262.2992269239145	852.73239	130.23465909725917	24.184115117823126	1250.86299	-177.00946827168525	418.45182743196483	1067.05705	-186.3326876216076	427.4168309798673	1066.59465	-102.632130330764	440.11914630690785	1110.81212	-143.2456106399228	273.4609848181953	785.74149	137.24220333500477	133.27219269912888	391.71473	157.38886548977587	142.42585492725345	390.67432	91.68441307111019	440.9664749897526	1012.43548	-148.71016614484984	117.63268352170562	747.30408	-170.31076020959665	124.52352718650971	741.81302	-104.63855081774106	76.31254554999276	314.03071	112.52698460399482	249.94657468690644	277.61633	81.9725268836816	243.08999108491957	269.92885	165.97099141420895	269.9608202318606	268.36823	124.25853422627168	118.2094703145636	306.51663	115.24885785311763	357.95754329390684	247.09760999999997	129.4956151276938	37.31032900265269	691.64209	-131.96183081055636	186.29344829736738	602.68696	-83.80810135497106	185.62985272598732	595.11508	-168.13628827563622	206.33171031012176	586.32938	-123.8618303743009	74.67406256677663	671.06508	-130.41607844071882	283.01506810507203	538.00807	-120.14789736975804	
237	3.933	4.919907857114186E-14	1249.99598	5.863317863948313E-14	89.11203315470856	1320.22372	159.43328133405475	95.56829270203008	1358.31433	-131.95231077743352	57.136327039444886	1403.5144	142.72751130584925	62.46179317412674	1434.66893	-95.87278830991414	-72.60201053978919	1194.8542	51.86592392934727	-70.00213461711853	1210.46037	-67.41921526932288	-66.06159213081156	1286.87277	3.3694558077365393	-2.5735609147000016	1383.51539	15.816527588675406	68.48965533174388	1481.25622	31.716199209188648	137.05546321024144	1568.07274	46.61786496773927	402.8510590733413	1579.69066	79.67749290112175	294.15858808620794	1693.03766	75.5837403630984	216.21294141864672	1643.44473	61.91281802020215	299.3338989232777	1507.5555	60.97948889591906	343.0011594595916	1721.88016	83.79553584371857	583.1922386000625	1794.53553	117.36388896245833	494.2022228119867	1742.16817	172.71933199880783	510.6584632528054	1750.37586	36.67649741721851	474.9276846779503	1792.62811	104.15848520097586	318.36469197644254	1661.88313	269.2580730643528	365.0923535162584	1703.61517	-105.86934212503976	331.0646038548882	1342.24576	286.8211323897952	303.2475118405812	1334.73168	226.33378295216426	409.0918597954409	1382.64838	-92.00921608824362	367.967626361643	1377.33073	-39.3176287114612	432.1083056494423	1110.92772	215.61700051421275	479.86277809638466	1133.41215	225.94907311794148	294.2450827085271	1328.48921	253.73194514979252	448.3683843198688	1142.54465	15.226163558508205	498.64415998983725	1158.84442	24.87622289692723	364.7685300609279	1372.99568	-72.62450896480905	644.8170730183735	1052.4335	315.7068719991835	552.8032627096576	1036.07593	267.28582652761054	494.39417343860964	1083.58803	224.92287824830916	663.4669684957064	1034.80431	8.279693523845935	559.4773723949529	1042.9542	22.64941320362476	502.25931160992764	1106.47707	34.66982612564027	13.54909142881742	1213.3504	176.2079643283585	213.4170312901644	826.83772	173.59074631384595	216.21070413853204	821.52006	89.60606517641473	255.18160451687464	848.51295	128.58626843576414	25.4870170885782	1250.80519	-176.89547911955862	425.01674101789575	1078.55938	-183.9941615682014	433.7745985512372	1078.90618	-100.27069321558662	445.23253776627985	1123.18145	-141.19817678601623	264.77173366213924	781.00184	134.79986851195568	114.70377202631478	390.50092	152.97447505793707	123.24313577661755	389.74951	87.25731247618059	449.4872728145099	1025.03601	-145.74921948702035	136.67390033363387	747.47748	-166.14220081513668	143.43191189200112	742.91124	-100.35853205176143	54.93118258155192	314.95552	107.90752050179778	227.1320074218807	273.28128	75.91479892368567	220.56399909453867	265.1314	159.89749072573477	247.12335476081591	263.05057	117.9936755726036	96.56804190711969	306.05423	110.3194598296791	334.4441909208958	239.06331999999998	122.51518666761243	58.452979983379336	688.86767	-127.89661508889063	210.82466268916926	605.80819	-80.02081542861777	210.48678785582948	598.46751	-164.3204912810728	231.52149165554493	590.37543	-120.09896689250004	96.56385055963804	669.79346	-126.4496042670375	310.0548678963647	545.11755	-116.42831980301646	
